<svg id="eFujURHvx8m1" xmlns="http://www.w3.org/2000/svg" xmlns:xlink="http://www.w3.org/1999/xlink" viewBox="0 0 300 300" shape-rendering="geometricPrecision" text-rendering="geometricPrecision"><path d="M159.669231,4.146634C157.504523,2.131577,154.565238,0.999106,151.5,0.999106s-6.004523,1.132471-8.169231,3.147528L4.869231,132.709852C2.7066,134.72296,1.494531,137.451714,1.5,140.295082v149.990422c0,5.916951,5.165954,10.713602,11.538462,10.713602h103.846154c6.372508,0,11.538462-4.796651,11.538462-10.713602v-85.708813h46.153846v85.708813c0,5.916951,5.165954,10.713602,11.538462,10.713602h103.846154c6.372508,0,11.538462-4.796651,11.538462-10.713602v-149.990422c.005469-2.843368-1.2066-5.572123-3.369231-7.58523l-31.246154-28.991006v-70.55978c0-5.916951-5.165954-10.713602-11.538462-10.713602h-23.076923c-6.372508,0-11.538462,4.796651-11.538462,10.713602v27.705374L159.669231,4.146634ZM24.576923,279.571903v-134.841389L151.5,26.880896L278.423077,144.730513v134.841389h-80.769231v-85.708813c0-5.916951-5.165954-10.713602-11.538462-10.713602h-69.230769c-6.372508,0-11.538462,4.796651-11.538462,10.713602v85.708813h-80.769231Z"/></svg>
