<svg id="esXTbCGMOhS1" xmlns="http://www.w3.org/2000/svg" xmlns:xlink="http://www.w3.org/1999/xlink" viewBox="0 0 16 16" shape-rendering="geometricPrecision" text-rendering="geometricPrecision"><path d="M8,8c1.656854,0,3-1.343146,3-3s-1.343146-3-3-3-3,1.343146-3,3s1.343146,3,3,3Zm2-3c0,1.104569-.895431,2-2,2s-2-.895431-2-2s.895431-2,2-2s2,.895431,2,2Zm4,8c0,1-1,1-1,1h-10c0,0-1,0-1-1s1-4,6-4s6,3,6,4Zm-1-.004c-.001-.246-.154-.986-.832-1.664C11.516,10.68,10.289,10,8,10c-2.29,0-3.516.68-4.168,1.332-.678.678-.83,1.418-.832,1.664h10Z" transform="matrix(.806221 0 0 0.806221 1.55023 1.55023)"/><ellipse rx="8" ry="8" transform="matrix(.942943 0 0 0.942943 8 8)" fill="rgba(0,0,0,0)" stroke="#000"/></svg>
